<svg width="120" height="32" viewBox="0 0 120 32" fill="none" xmlns="http://www.w3.org/2000/svg">
<line x1="119.5" y1="31" x2="119.5" y2="-2.18557e-08" stroke="#242424"/>
<path d="M12.2228 10.576V22H13.2788V11.536H20.0948V22H21.1508V10.576H12.2228ZM24.1603 10.576V22H25.2163V17.232H28.8483C31.2803 17.232 32.6083 15.968 32.6083 13.904C32.6083 11.84 31.2803 10.576 28.8483 10.576H24.1603ZM25.2163 16.272V11.536H28.6723C30.8003 11.536 31.5523 12.464 31.5523 13.904C31.5523 15.344 30.8003 16.272 28.6723 16.272H25.2163ZM39.6128 10.368C36.1888 10.368 34.3808 13.024 34.3808 16.288C34.3808 19.552 36.1888 22.208 39.6128 22.208C43.0208 22.208 44.8448 19.552 44.8448 16.288C44.8448 13.024 43.0208 10.368 39.6128 10.368ZM39.6128 21.248C36.6688 21.248 35.4368 18.784 35.4368 16.288C35.4368 13.792 36.6688 11.328 39.6128 11.328C42.5568 11.328 43.7888 13.792 43.7888 16.288C43.7888 18.784 42.5568 21.248 39.6128 21.248ZM48.31 21.04V16.528H53.766V15.568H48.31V11.536H55.014V10.576H47.254V22H55.286V21.04H48.31ZM57.5978 22H58.6538V16.576H62.3978L64.9097 22H66.0618L63.3578 16.128L65.9178 10.576H64.7658L62.3978 15.616H58.6538V10.576H57.5978V22ZM75.6966 10.576H66.9446V11.504H70.8006V22H71.8566V11.504H75.6966V10.576ZM78.56 21.04V16.096H81.728C83.952 16.096 84.736 17.072 84.736 18.56C84.736 20.064 83.952 21.04 81.728 21.04H78.56ZM81.92 22C84.416 22 85.792 20.704 85.792 18.576C85.792 16.416 84.416 15.136 81.92 15.136H78.56V10.576H77.504V22H81.92ZM87.44 10.576V22H88.496V10.576H87.44Z" fill="#242424"/>
<path fill-rule="evenodd" clip-rule="evenodd" d="M99 15.5234L99.7248 14.7986L105.523 9L106.226 9.70287L100.906 15.0235L120 15.0235L120 16.0235L100.95 16.0235L106.201 21.2752L105.477 22L99.7029 16.2263L99 15.5234Z" fill="#242424"/>
<line y1="31.5" x2="120" y2="31.5" stroke="#242424"/>
</svg>
